<svg id="Layer_1" enable-background="new 0 0 512 512" height="512" viewBox="0 0 512 512" width="512" xmlns="http://www.w3.org/2000/svg"><g><path d="m320.267 222.8h-128.534c-8.284 0-15-6.716-15-15v-64.267c0-8.284 6.716-15 15-15h128.533c8.284 0 15 6.716 15 15v64.267c.001 8.284-6.715 15-14.999 15z" fill="#2691af"/><path d="m335.267 207.8v-64.267c0-8.284-6.716-15-15-15h-64.267v94.267h64.267c8.284 0 15-6.716 15-15z" fill="#006e8c"/><path d="m241 94.267h-49.267c-8.284 0-15-6.716-15-15v-49.267c0-8.284 6.716-15 15-15h49.267c8.284 0 15 6.716 15 15v49.267c0 8.284-6.716 15-15 15z" fill="#9b9faa"/><path d="m352.4 94.267c-8.284 0-15-6.716-15-15 0-27.166-22.1-49.267-49.266-49.267h-128.534c-8.284 0-15-6.716-15-15s6.716-15 15-15h128.534c43.708 0 79.266 35.559 79.266 79.267 0 8.284-6.715 15-15 15z" fill="#c8cad2"/><path d="m337.4 79.267c0 8.284 6.716 15 15 15s15-6.716 15-15c0-43.708-35.558-79.267-79.266-79.267h-32.134v30h32.134c27.166 0 49.266 22.101 49.266 49.267z" fill="#9b9faa"/><path d="m352.4 512h-192.8c-8.284 0-15-6.716-15-15v-257.067c0-26.03 21.058-47.133 47.134-47.133h128.533c26.084 0 47.134 21.11 47.134 47.133v257.067c-.001 8.284-6.716 15-15.001 15z" fill="#4bb4d2"/><path d="m367.4 497v-257.067c0-26.023-21.049-47.133-47.134-47.133h-64.266v319.2h96.4c8.285 0 15-6.716 15-15z" fill="#2691af"/><path d="m352.4 158.533h-192.8c-8.284 0-15-6.716-15-15v-64.266c0-8.284 6.716-15 15-15h192.8c8.284 0 15 6.716 15 15v64.267c0 8.283-6.715 14.999-15 14.999z" fill="#f5f5fa"/><path d="m367.4 143.533v-64.266c0-8.284-6.716-15-15-15h-96.4v94.267h96.4c8.285-.001 15-6.717 15-15.001z" fill="#c8cad2"/><path d="m256 367.4c-25.989 0-47.134-21.144-47.134-47.133 0-31.605 34.399-57.491 38.321-60.338 5.256-3.815 12.369-3.815 17.625 0 3.922 2.848 38.321 28.733 38.321 60.338.001 25.989-21.144 47.133-47.133 47.133z" fill="#f5f5fa"/><path d="m303.134 320.267c0-31.605-34.399-57.491-38.321-60.338-2.628-1.908-5.72-2.862-8.813-2.862v110.333c25.989 0 47.134-21.144 47.134-47.133z" fill="#c8cad2"/></g></svg>